# xmcd
#
# Track frame offsets: 
#        150
#        51117
#        111175
#        165370
#        207817
#        242060
#
# Disc length: 3966 seconds
#
# Revision: 0
# Processed by: cddbd v1.5.1PL2 Copyright (c) Steve Scherf et al.
# Submitted via: ExactAudioCopy v0.95b3
#
DISCID=460f7c06
DTITLE=Dave Turner, Nelson Symonds - The Pulse Brothers
DYEAR=1997
DGENRE=Jazz
TTITLE0=Star Eyes
TTITLE1=Like Someone In Love
TTITLE2=Black Orpheus
TTITLE3=It Could Happen To You
TTITLE4=You Stepped Out Of A Dream
TTITLE5=Au Privave
EXTD=
EXTT0=
EXTT1=
EXTT2=
EXTT3=
EXTT4=
EXTT5=
PLAYORDER=
